<svg id="Capa_1" enable-background="new 0 0 512 512" height="512" viewBox="0 0 512 512" width="512" xmlns="http://www.w3.org/2000/svg"><g><g><path d="m259.65 301v90c0 11.82-7.66 28.31-44.15 39.74-23.1 7.24-53.52 11.22-85.67 11.22h-.01c-32.15 0-62.57-3.98-85.67-11.22-36.49-11.43-44.15-27.92-44.15-39.74v-90z" fill="#4793ff"/><path d="m129.83 301h129.82v90c0 11.82-7.66 28.31-44.15 39.74-23.1 7.24-53.52 11.22-85.67 11.22z" fill="#525cdd"/><path d="m259.65 211v90c0 11.82-7.66 28.31-44.15 39.74-23.1 7.24-53.52 11.22-85.67 11.22h-.01c-32.15 0-62.57-3.98-85.67-11.22-36.49-11.43-44.15-27.92-44.15-39.74v-90z" fill="#5e54ac"/><path d="m129.83 211h129.82v90c0 11.82-7.66 28.31-44.15 39.74-23.1 7.24-53.52 11.22-85.67 11.22z" fill="#453d81"/><path d="m259.65 121v90c0 11.82-7.66 28.31-44.15 39.74-23.1 7.24-53.52 11.22-85.67 11.22h-.01c-32.15 0-62.57-3.98-85.67-11.22-36.49-11.43-44.15-27.92-44.15-39.74v-90z" fill="#4793ff"/><path d="m259.65 121v90c0 11.82-7.66 28.31-44.15 39.74-23.1 7.24-53.52 11.22-85.67 11.22v-140.96z" fill="#525cdd"/><g><path d="m259.65 121c0 11.82-7.66 28.31-44.15 39.74-23.1 7.24-53.52 11.22-85.67 11.22h-.01c-32.15 0-62.57-3.98-85.67-11.22-36.49-11.43-44.15-27.92-44.15-39.74s7.66-28.31 44.15-39.74c23.1-7.24 53.52-11.22 85.67-11.22h.01c32.15 0 62.57 3.98 85.67 11.22 36.49 11.43 44.15 27.92 44.15 39.74z" fill="#a8ebfa"/></g><path d="m215.5 160.74c-23.1 7.24-53.52 11.22-85.67 11.22v-101.92c32.15 0 62.57 3.98 85.67 11.22 36.49 11.43 44.15 27.92 44.15 39.74s-7.66 28.31-44.15 39.74z" fill="#7dd5f4"/></g><g><g><path d="m488.65 192.48v54.65c0 8.28-6.72 15-15 15-8.29 0-15-6.72-15-15v-54.65c0-31.88-25.94-57.82-57.82-57.82h-.01c-31.89.01-57.82 25.94-57.82 57.82v54.65c0 8.28-6.71 15-15 15-8.28 0-15-6.72-15-15v-54.65c0-48.42 39.39-87.81 87.82-87.82h.01c48.42 0 87.82 39.4 87.82 87.82z" fill="#5e54ac"/></g><path d="m488.65 192.48v54.65c0 8.28-6.72 15-15 15-8.29 0-15-6.72-15-15v-54.65c0-31.88-25.94-57.82-57.82-57.82h-.01v-30h.01c48.42 0 87.82 39.4 87.82 87.82z" fill="#453d81"/><g><path d="m512 247.13v145.21c0 8.29-6.72 15-15 15h-192.35c-8.28 0-15-6.71-15-15v-145.21c0-8.28 6.72-15 15-15h192.35c8.28 0 15 6.72 15 15z" fill="#fabe2c"/></g><path d="m512 247.13v145.21c0 8.29-6.72 15-15 15h-96.18v-175.21h96.18c8.28 0 15 6.72 15 15z" fill="#ff9100"/><g><circle cx="431.398" cy="319.736" fill="#dfe7f4" r="12.786"/></g><g><circle cx="370.252" cy="319.736" fill="#f0f7ff" r="12.786"/></g></g></g></svg>