<svg id="Capa_1" enable-background="new 0 0 512 512" height="512" viewBox="0 0 512 512" width="512" xmlns="http://www.w3.org/2000/svg"><g><path d="m477.7 128c-17.19-29.78-57.29-42.71-112.93-36.41-33.6 3.8-70.89 14.32-108.77 30.44-19.99 8.51-40.14 18.58-60 30.05-57.49 33.19-106.07 74.36-136.77 115.91-33.27 45.03-42.12 86.23-24.93 116.01 21.01 36.383 71.065 41.143 112.93 36.41 33.6-3.8 70.89-14.32 108.77-30.44 19.99-8.51 40.14-18.58 60-30.05 57.49-33.19 106.07-74.36 136.77-115.91 33.27-45.03 42.12-86.23 24.93-116.01zm-49.06 98.18c-14.16 19.16-32.56 38.3-54.19 56.55-21.62 18.26-46.45 35.62-73.45 51.21-14.94 8.62-30.01 16.4-45 23.25-39.22 17.93-77.9 29.53-112.15 33.41-42.41 4.8-72.87-3.07-83.57-21.6s-2.29-48.85 23.08-83.18c28.31-38.31 73.64-76.58 127.64-107.76 14.94-8.62 30.01-16.4 45-23.25 39.22-17.93 77.9-29.53 112.15-33.41 27.646-3.117 69.648-2.505 83.57 21.6 10.7 18.53 2.29 48.85-23.08 83.18z" fill="#bde239"/><path d="m452.77 244.01c-30.7 41.55-79.28 82.72-136.77 115.91-19.86 11.47-40.01 21.54-60 30.05v-32.78c14.99-6.85 30.06-14.63 45-23.25 27-15.59 51.83-32.95 73.45-51.21 21.63-18.25 40.03-37.39 54.19-56.55 25.37-34.33 33.78-64.65 23.08-83.18-13.918-24.098-55.901-24.719-83.57-21.6-34.25 3.88-72.93 15.48-112.15 33.41v-32.78c37.88-16.12 75.17-26.64 108.77-30.44 55.64-6.3 95.74 6.63 112.93 36.41s8.34 70.98-24.93 116.01z" fill="#8bbc43"/><path d="m452.77 267.99c-30.7-41.55-79.28-82.72-136.77-115.91-19.86-11.47-40.01-21.54-60-30.05-37.88-16.12-75.17-26.64-108.77-30.44-55.63-6.3-95.74 6.63-112.93 36.41s-8.34 70.98 24.93 116.01c30.7 41.55 79.28 82.72 136.77 115.91 19.86 11.47 40.01 21.54 60 30.05 37.88 16.12 75.17 26.64 108.77 30.44 41.813 4.722 91.92-.002 112.93-36.41 17.19-29.78 8.34-70.98-24.93-116.01zm-1.05 101.01c-10.7 18.53-41.16 26.4-83.57 21.6-23.67-2.68-49.46-9.05-76.08-18.65-11.9-4.29-23.96-9.22-36.07-14.76-14.99-6.85-30.06-14.63-45-23.25-54-31.18-99.33-69.45-127.64-107.76-25.37-34.33-33.78-64.65-23.08-83.18 13.918-24.099 55.916-24.722 83.57-21.6 34.25 3.88 72.93 15.48 112.15 33.41 14.99 6.85 30.06 14.63 45 23.25 54 31.18 99.33 69.45 127.64 107.76 25.37 34.33 33.78 64.65 23.08 83.18z" fill="#df5ccb"/><circle cx="256" cy="256" fill="#fabe2c" r="45"/><path d="m344 79.6c-22.37-51.33-53.62-79.6-88-79.6s-65.63 28.27-88 79.6c-20.63 47.36-32 110.01-32 176.4s11.37 129.04 32 176.4c22.37 51.33 53.62 79.6 88 79.6s65.63-28.27 88-79.6c20.63-47.36 32-110.01 32-176.4s-11.37-129.04-32-176.4zm-27.51 340.82c-17.05 39.14-39.09 61.58-60.49 61.58s-43.44-22.44-60.49-61.58c-19.03-43.67-29.51-102.06-29.51-164.42s10.48-120.75 29.51-164.42c17.05-39.14 39.09-61.58 60.49-61.58s43.44 22.44 60.49 61.58c19.03 43.67 29.51 102.06 29.51 164.42s-10.48 120.75-29.51 164.42z" fill="#4793ff"/><path d="m256 301v-90c24.81 0 45 20.19 45 45s-20.19 45-45 45z" fill="#ff9100"/><path d="m477.7 384c-21.001 36.393-71.082 41.136-112.93 36.41-33.6-3.8-70.89-14.32-108.77-30.44v-32.78c12.11 5.54 24.17 10.47 36.07 14.76 26.62 9.6 52.41 15.97 76.08 18.65 42.41 4.8 72.87-3.07 83.57-21.6s2.29-48.85-23.08-83.18c-28.31-38.31-73.64-76.58-127.64-107.76-14.94-8.62-30.01-16.4-45-23.25v-32.78c19.99 8.51 40.14 18.58 60 30.05 57.49 33.19 106.07 74.36 136.77 115.91 33.27 45.03 42.12 86.23 24.93 116.01z" fill="#c63eba"/><path d="m376 256c0 66.39-11.37 129.04-32 176.4-22.37 51.33-53.62 79.6-88 79.6v-30c21.4 0 43.44-22.44 60.49-61.58 19.03-43.67 29.51-102.06 29.51-164.42s-10.48-120.75-29.51-164.42c-17.05-39.14-39.09-61.58-60.49-61.58v-30c34.38 0 65.63 28.27 88 79.6 20.63 47.36 32 110.01 32 176.4z" fill="#525cdd"/></g></svg>